<svg width="24" height="24" viewBox="0 0 24 24" fill="none" xmlns="http://www.w3.org/2000/svg">
<path d="M15.8359 1.72363L18.3613 6.09768L13.9872 8.62304" stroke="#D4AF37" stroke-linecap="round" stroke-linejoin="round"/>
<path d="M18.6389 10.7977C18.9408 12.4123 18.7098 14.0812 17.9807 15.5531C17.2516 17.025 16.064 18.22 14.5966 18.9582C13.1293 19.6964 11.4618 19.9377 9.84545 19.6458C8.22905 19.3539 6.75131 18.5446 5.63488 17.3398C4.51845 16.135 3.8238 14.6 3.65561 12.9661C3.48742 11.3322 3.85479 9.68786 4.70238 8.2809C5.54996 6.87394 6.83184 5.78054 8.35487 5.16547C9.8779 4.55039 11.5596 4.44695 13.1465 4.87073L18.3642 6.09626" stroke="#D4AF37" stroke-linecap="round" stroke-linejoin="round"/>
</svg>
